<mxfile host="app.diagrams.net" modified="2023-08-30T05:09:25.175Z" agent="Mozilla/5.0 (Windows NT 10.0; Win64; x64) AppleWebKit/537.36 (KHTML, like Gecko) Chrome/116.0.0.0 Safari/537.36" etag="rraargchnEAaZrGlEstv" version="21.6.9" type="github">
  <diagram name="Page-1" id="kkHc22WoZiGgt545peDv">
    <mxGraphModel dx="989" dy="517" grid="1" gridSize="10" guides="1" tooltips="1" connect="1" arrows="1" fold="1" page="1" pageScale="1" pageWidth="850" pageHeight="1100" math="0" shadow="0">
      <root>
        <mxCell id="0" />
        <mxCell id="1" parent="0" />
        <mxCell id="ySk4X-cWn8bUDhclHcyJ-9" value="" style="edgeStyle=orthogonalEdgeStyle;rounded=0;orthogonalLoop=1;jettySize=auto;html=1;" edge="1" parent="1" source="eaTFEaRX8SG-pythhIeR-1" target="ySk4X-cWn8bUDhclHcyJ-3">
          <mxGeometry relative="1" as="geometry" />
        </mxCell>
        <mxCell id="eaTFEaRX8SG-pythhIeR-1" value="START" style="rounded=1;whiteSpace=wrap;html=1;" parent="1" vertex="1">
          <mxGeometry x="350" y="40" width="120" height="30" as="geometry" />
        </mxCell>
        <mxCell id="ySk4X-cWn8bUDhclHcyJ-1" value="Dividend: a, &lt;br&gt;Divisor: b" style="shape=parallelogram;perimeter=parallelogramPerimeter;whiteSpace=wrap;html=1;fixedSize=1;" vertex="1" parent="1">
          <mxGeometry x="350" y="100" width="120" height="60" as="geometry" />
        </mxCell>
        <mxCell id="ySk4X-cWn8bUDhclHcyJ-11" value="" style="edgeStyle=orthogonalEdgeStyle;rounded=0;orthogonalLoop=1;jettySize=auto;html=1;" edge="1" parent="1" source="ySk4X-cWn8bUDhclHcyJ-3" target="ySk4X-cWn8bUDhclHcyJ-10">
          <mxGeometry relative="1" as="geometry" />
        </mxCell>
        <mxCell id="ySk4X-cWn8bUDhclHcyJ-12" value="Y" style="edgeLabel;html=1;align=center;verticalAlign=middle;resizable=0;points=[];" vertex="1" connectable="0" parent="ySk4X-cWn8bUDhclHcyJ-11">
          <mxGeometry x="-0.011" relative="1" as="geometry">
            <mxPoint as="offset" />
          </mxGeometry>
        </mxCell>
        <mxCell id="ySk4X-cWn8bUDhclHcyJ-17" value="" style="edgeStyle=orthogonalEdgeStyle;rounded=0;orthogonalLoop=1;jettySize=auto;html=1;" edge="1" parent="1" source="ySk4X-cWn8bUDhclHcyJ-3" target="ySk4X-cWn8bUDhclHcyJ-16">
          <mxGeometry relative="1" as="geometry" />
        </mxCell>
        <mxCell id="ySk4X-cWn8bUDhclHcyJ-21" value="N" style="edgeLabel;html=1;align=center;verticalAlign=middle;resizable=0;points=[];" vertex="1" connectable="0" parent="ySk4X-cWn8bUDhclHcyJ-17">
          <mxGeometry x="-0.281" y="2" relative="1" as="geometry">
            <mxPoint as="offset" />
          </mxGeometry>
        </mxCell>
        <mxCell id="ySk4X-cWn8bUDhclHcyJ-3" value="a &amp;gt; b" style="rhombus;whiteSpace=wrap;html=1;" vertex="1" parent="1">
          <mxGeometry x="360" y="210" width="100" height="80" as="geometry" />
        </mxCell>
        <mxCell id="ySk4X-cWn8bUDhclHcyJ-18" style="edgeStyle=orthogonalEdgeStyle;rounded=0;orthogonalLoop=1;jettySize=auto;html=1;exitX=0.5;exitY=0;exitDx=0;exitDy=0;" edge="1" parent="1" source="ySk4X-cWn8bUDhclHcyJ-10">
          <mxGeometry relative="1" as="geometry">
            <mxPoint x="410" y="180.03" as="targetPoint" />
            <mxPoint x="559.9655172413793" y="230.0299999999999" as="sourcePoint" />
            <Array as="points">
              <mxPoint x="560" y="180" />
            </Array>
          </mxGeometry>
        </mxCell>
        <mxCell id="ySk4X-cWn8bUDhclHcyJ-10" value="a = a - b" style="whiteSpace=wrap;html=1;" vertex="1" parent="1">
          <mxGeometry x="500" y="220" width="120" height="60" as="geometry" />
        </mxCell>
        <mxCell id="ySk4X-cWn8bUDhclHcyJ-20" value="" style="edgeStyle=orthogonalEdgeStyle;rounded=0;orthogonalLoop=1;jettySize=auto;html=1;" edge="1" parent="1" source="ySk4X-cWn8bUDhclHcyJ-16" target="ySk4X-cWn8bUDhclHcyJ-19">
          <mxGeometry relative="1" as="geometry" />
        </mxCell>
        <mxCell id="ySk4X-cWn8bUDhclHcyJ-16" value="Quotient: a" style="shape=parallelogram;perimeter=parallelogramPerimeter;whiteSpace=wrap;html=1;fixedSize=1;" vertex="1" parent="1">
          <mxGeometry x="350" y="330" width="120" height="60" as="geometry" />
        </mxCell>
        <mxCell id="ySk4X-cWn8bUDhclHcyJ-19" value="END" style="rounded=1;whiteSpace=wrap;html=1;" vertex="1" parent="1">
          <mxGeometry x="350" y="430" width="120" height="30" as="geometry" />
        </mxCell>
        <mxCell id="ySk4X-cWn8bUDhclHcyJ-22" value="&amp;nbsp;除法计算流程" style="text;html=1;strokeColor=none;fillColor=none;align=center;verticalAlign=middle;whiteSpace=wrap;rounded=0;" vertex="1" parent="1">
          <mxGeometry x="365" width="90" height="30" as="geometry" />
        </mxCell>
      </root>
    </mxGraphModel>
  </diagram>
</mxfile>
